# xmcd CD database file
#
# Track frame offsets:
#	150
#	14192
#	36742
#	56150
#	74464
#	91487
#	113927
#
# Disc length: 1904 seconds
#
# Revision: 0
# Processed by: cddbd v1.5.2PL0 Copyright (c) Steve Scherf et al.
# Submitted via: CDex 1.51
#
DISCID=6d076e07
DTITLE=原宿 BJ Girls - BJ3.
DYEAR=2006
DGENRE=Jazz
TTITLE0=Alexander's Ragtume Band
TTITLE1=Lady Maemalade
TTITLE2=Moonlight Serenade
TTITLE3=A Night In Tunisia
TTITLE4=In The Mood
TTITLE5=Just The Two Of Us
TTITLE6=You've God A Friend
EXTD=YEAR: 2006
EXTT0=
EXTT1=
EXTT2=
EXTT3=
EXTT4=
EXTT5=
EXTT6=
PLAYORDER=
